<svg width="327" height="268" viewBox="0 0 327 268" fill="none" xmlns="http://www.w3.org/2000/svg">
<path opacity="0.1" d="M190.408 35.8221C169.508 35.0986 149.604 28.3811 130.596 21.0301C111.589 13.6791 92.7633 5.53381 72.3644 1.63964C59.2442 -0.865366 44.2382 -1.21909 33.669 5.78463C23.4938 12.5375 20.2065 24.1621 18.4402 34.9603C17.1097 43.0831 16.3283 51.6336 19.9708 59.2354C22.5025 64.5155 26.9911 68.9531 30.0975 74.0114C40.9056 91.6075 33.2654 113.307 21.5563 130.488C16.0667 138.55 9.68904 146.245 5.44911 154.818C1.20918 163.391 -0.75094 173.227 2.9594 181.98C6.63422 190.663 15.395 197.171 24.8856 201.754C44.1607 211.063 66.8651 213.726 89.0206 215.234C138.049 218.575 187.337 217.128 236.495 215.681C254.688 215.144 272.959 214.6 290.855 211.799C300.794 210.243 311.053 207.777 318.271 201.815C327.429 194.248 329.699 181.437 323.56 171.948C313.265 156.033 284.81 152.081 277.605 135.003C273.646 125.6 277.712 115.13 283.47 106.409C295.818 87.7069 316.514 71.2973 317.602 49.9196C318.351 35.2369 308.402 20.5317 293.018 13.5826C276.895 6.30235 254.533 7.2156 242.643 19.2711C230.388 31.6836 208.862 36.4588 190.408 35.8221Z" fill="#2764C2"/>
<path opacity="0.1" d="M167.128 262.363C221.339 262.363 265.286 256.443 265.286 249.14C265.286 241.837 221.339 235.917 167.128 235.917C112.917 235.917 68.9705 241.837 68.9705 249.14C68.9705 256.443 112.917 262.363 167.128 262.363Z" fill="#2764C2"/>
<path d="M118.535 209.774C118.535 209.774 125.317 208.694 129.385 213.466C129.385 213.466 126.402 215.807 119.982 212.565L118.535 209.774Z" fill="#235AAF"/>
<path d="M117.812 209.668C117.812 209.668 113.485 214.999 115.606 220.874C115.606 220.874 119.133 219.469 119.517 212.311L117.812 209.668Z" fill="#235AAF"/>
<path d="M113.937 200.95C113.937 200.95 116.65 195.998 127.5 202.931C127.5 202.931 126.053 206.262 121.261 205.992C116.469 205.722 115.187 203.561 113.937 200.95Z" fill="#235AAF"/>
<path d="M113.223 200.593C113.223 200.593 107.595 199.95 107.049 212.781C107.049 212.781 110.617 213.52 113.152 209.459C115.687 205.397 114.638 203.127 113.223 200.593Z" fill="#235AAF"/>
<path d="M109.943 190.361C109.943 190.361 113.107 181.624 124.593 187.837C124.593 187.837 121.971 195.853 111.118 193.332L109.943 190.361Z" fill="#235AAF"/>
<path d="M106.416 177.302C106.416 177.302 112.384 168.478 122.966 176.659C122.966 176.659 119.259 184.943 107.32 180.441L106.416 177.302Z" fill="#235AAF"/>
<path d="M105.15 164.877C105.15 164.877 112.113 156.773 122.588 164.877C122.588 164.877 115.984 171.99 105.15 166.948V164.877Z" fill="#235AAF"/>
<path d="M104.065 152.812C104.065 152.812 111.118 144.345 121.157 152.362C121.157 152.362 113.198 159.835 104.065 154.793V152.812Z" fill="#235AAF"/>
<path d="M104.698 142.094C104.698 142.094 112.125 131.199 121.519 138.582C121.519 138.582 113.559 147.95 104.698 144.165V142.094Z" fill="#235AAF"/>
<path d="M106.416 129.579C106.416 129.579 114.283 118.774 123.418 127.057C123.418 127.057 114.102 136.421 106.416 131.559V129.579Z" fill="#235AAF"/>
<path d="M109.042 118.391C109.042 118.391 118.351 108.239 126.479 112.281C126.479 112.281 116.772 123.064 108.635 121.083L109.042 118.391Z" fill="#235AAF"/>
<path d="M112.293 107.789C112.293 107.789 123.056 95.3607 129.295 99.5024C129.295 99.5024 121.377 109.149 111.534 110.13L112.293 107.789Z" fill="#235AAF"/>
<path d="M116.992 95.4861C116.992 95.4861 126.402 85.331 133.273 87.8521C133.273 87.8521 125.226 98.3898 115.729 98.6599L116.992 95.4861Z" fill="#235AAF"/>
<path d="M121.248 83.9804C121.248 83.9804 131.646 74.2563 136.167 75.967C136.167 75.967 128.662 86.7716 120.796 86.1414L121.248 83.9804Z" fill="#235AAF"/>
<path d="M125.407 73.3559C125.407 73.3559 134.358 61.7409 139.241 62.6413C139.241 62.6413 133.816 72.9957 125.407 74.5392V73.3559Z" fill="#00BFA6"/>
<path d="M129.918 59.0397C129.918 59.0397 137.833 50.1323 142.105 50.1549C142.105 50.1549 135.86 62.0528 129.595 61.9435L129.918 59.0397Z" fill="#00BFA6"/>
<path d="M132.595 49.4924L140.236 30.9445C140.236 30.9445 140.62 47.7109 131.62 52.9332L132.595 49.4924Z" fill="#235AAF"/>
<path d="M135.695 29.0376C135.695 29.0376 136.961 13.5509 136.147 12.2904C136.147 12.2904 141.614 25.1531 135.644 35.8805L135.695 29.0376Z" fill="#235AAF"/>
<path d="M109.649 190.152C109.649 190.152 101.721 185.261 96.593 197.226C96.593 197.226 103.646 201.889 110.579 193.204L109.649 190.152Z" fill="#235AAF"/>
<path d="M106.164 176.804C106.164 176.804 96.4445 172.389 91.7266 184.882C91.7266 184.882 99.2377 190.027 107.049 179.962L106.164 176.804Z" fill="#235AAF"/>
<path d="M104.698 165.62C104.698 165.62 97.7361 157.516 87.2606 165.62C87.2606 165.62 93.8611 172.733 104.698 167.691V165.62Z" fill="#235AAF"/>
<path d="M103.83 152.812C103.83 152.812 96.7738 144.345 86.7375 152.362C86.7375 152.362 94.6942 159.835 103.83 154.793V152.812Z" fill="#235AAF"/>
<path d="M104.698 142.403C104.698 142.403 99.7512 130.199 88.998 135.447C88.998 135.447 94.8105 146.271 104.262 144.428L104.698 142.403Z" fill="#235AAF"/>
<path d="M107.039 129.517C107.039 129.517 102.125 117.102 91.2164 122.858C91.2164 122.858 97.8944 134.238 106.555 131.437L107.039 129.517Z" fill="#235AAF"/>
<path d="M110.088 118.456C110.088 118.456 108.15 104.84 99.1247 103.622C99.1247 103.622 101.04 117.976 108.883 120.906L110.088 118.456Z" fill="#235AAF"/>
<path d="M112.526 107.812C112.526 107.812 111.767 91.4118 104.291 90.8427C104.291 90.8427 104.543 103.287 111.683 110.137L112.526 107.812Z" fill="#235AAF"/>
<path d="M117.77 95.0166C117.77 95.0166 115.539 81.3822 108.405 79.7132C108.405 79.7132 109.29 92.92 117.063 98.3641L117.77 95.0166Z" fill="#235AAF"/>
<path d="M122.094 84.0801C122.094 84.0801 122.016 69.8733 117.657 67.7863C117.657 67.7863 114.954 80.649 120.831 85.8937L122.094 84.0801Z" fill="#235AAF"/>
<path d="M125.74 73.1887C125.74 73.1887 125.126 58.5574 120.615 56.4961C120.615 56.4961 119.068 68.0725 125.062 74.1437L125.74 73.1887Z" fill="#235AAF"/>
<path d="M130.551 60.1974C130.551 60.1974 130.522 48.2994 127.299 45.5082C127.299 45.5082 124.096 58.5445 128.869 62.5898L130.551 60.1974Z" fill="#235AAF"/>
<path d="M132.214 48.9072L129.082 29.1019C129.082 29.1019 124.819 45.3314 132.363 52.4798L132.214 48.9072Z" fill="#235AAF"/>
<path d="M132.828 29.2241C132.828 29.2241 124.777 15.9145 124.945 14.432C124.945 14.432 125.798 28.388 135.925 35.3339L132.828 29.2241Z" fill="#235AAF"/>
<path d="M133.771 25.2946C133.771 25.2946 126.176 6.38324 122.74 4.85258C122.74 4.85258 133.59 10.3449 134.404 24.7543L133.771 25.2946Z" fill="#235AAF"/>
<path d="M129.553 62.0464L129.033 61.8888C135.443 41.0738 137.045 27.8028 133.538 24.4778L133.913 24.0855C137.626 27.5938 136.122 40.7105 129.553 62.0464Z" fill="#444053"/>
<path d="M111.903 110.77L111.137 110.5C111.815 108.593 112.548 106.657 113.317 104.747C120.008 88.1415 125.704 72.6966 129.356 60.8373L130.025 60.5157C126.366 72.3976 120.773 88.4373 114.073 105.062C113.307 106.953 112.577 108.883 111.903 110.77Z" fill="#444053"/>
<path d="M128.078 225.354C127.974 225.238 117.583 213.591 110.343 193.699C106.098 182.057 103.732 169.818 103.336 157.439C102.838 141.962 106.1 124.681 111.686 108.985L112.293 109.693C99.7544 144.924 104.737 175.116 111.344 193.3C118.513 213.009 128.782 224.534 128.885 224.646L128.078 225.354Z" fill="#444053"/>
<path d="M220.694 91.1964H219.312C218.904 91.1964 218.573 91.5261 218.573 91.9328V113.941C218.573 114.347 218.904 114.677 219.312 114.677H220.694C221.103 114.677 221.434 114.347 221.434 113.941V91.9328C221.434 91.5261 221.103 91.1964 220.694 91.1964Z" fill="#3A3768"/>
<path d="M124.361 72.7996H124.235C123.827 72.7996 123.495 73.1293 123.495 73.5359V79.7936C123.495 80.2003 123.827 80.53 124.235 80.53H124.361C124.769 80.53 125.1 80.2003 125.1 79.7936V73.5359C125.1 73.1293 124.769 72.7996 124.361 72.7996Z" fill="#3A3768"/>
<path d="M124.506 86.9549H124.177C123.768 86.9549 123.437 87.2846 123.437 87.6913V99.6729C123.437 100.08 123.768 100.409 124.177 100.409H124.506C124.915 100.409 125.246 100.08 125.246 99.6729V87.6913C125.246 87.2846 124.915 86.9549 124.506 86.9549Z" fill="#3A3768"/>
<path d="M124.448 105.117H124.206C123.797 105.117 123.466 105.447 123.466 105.853V117.951C123.466 118.357 123.797 118.687 124.206 118.687H124.448C124.856 118.687 125.188 118.357 125.188 117.951V105.853C125.188 105.447 124.856 105.117 124.448 105.117Z" fill="#3A3768"/>
<path d="M207.526 47.2543H136.993C130.04 47.2543 124.403 52.8677 124.403 59.7922V228.425C124.403 235.349 130.04 240.963 136.993 240.963H207.526C214.479 240.963 220.116 235.349 220.116 228.425V59.7922C220.116 52.8677 214.479 47.2543 207.526 47.2543Z" fill="#3A3768"/>
<path d="M206.615 52.2868H195.636V53.602C195.636 54.4207 195.474 55.2314 195.159 55.9877C194.844 56.744 194.383 57.4311 193.802 58.0098C193.22 58.5886 192.53 59.0476 191.77 59.3605C191.01 59.6735 190.196 59.8344 189.374 59.834H154.457C153.635 59.8344 152.821 59.6735 152.061 59.3605C151.301 59.0476 150.611 58.5886 150.03 58.0098C149.448 57.4311 148.987 56.744 148.672 55.9877C148.358 55.2314 148.196 54.4207 148.196 53.602V52.2868H137.917C135.901 52.2868 133.967 53.0844 132.542 54.5039C131.116 55.9235 130.315 57.8489 130.315 59.8565V228.348C130.315 230.355 131.116 232.281 132.542 233.7C133.967 235.12 135.901 235.917 137.917 235.917H206.615C208.631 235.917 210.564 235.12 211.99 233.7C213.416 232.281 214.216 230.355 214.216 228.348V59.8694C214.218 58.8742 214.023 57.8885 213.641 56.9686C213.26 56.0488 212.701 55.2128 211.995 54.5085C211.288 53.8042 210.45 53.2455 209.527 52.8643C208.604 52.4831 207.614 52.2868 206.615 52.2868Z" fill="#2764C2"/>
<path d="M175.143 53.0393H164.277C163.587 53.0393 163.027 53.5965 163.027 54.2838V54.496C163.027 55.1833 163.587 55.7405 164.277 55.7405H175.143C175.833 55.7405 176.393 55.1833 176.393 54.496V54.2838C176.393 53.5965 175.833 53.0393 175.143 53.0393Z" fill="#E6E8EC"/>
<path d="M179.955 55.9237C180.805 55.9237 181.495 55.237 181.495 54.3899C181.495 53.5427 180.805 52.856 179.955 52.856C179.104 52.856 178.414 53.5427 178.414 54.3899C178.414 55.237 179.104 55.9237 179.955 55.9237Z" fill="#E6E8EC"/>
<path d="M253.254 38.7585C253.254 38.7585 226.064 37.125 229.268 56.0974C229.268 56.0974 228.622 59.4513 231.683 60.9723C231.683 60.9723 231.732 59.5671 234.473 60.0462C235.449 60.2074 236.441 60.2548 237.428 60.1877C238.759 60.1006 240.026 59.5848 241.038 58.7182C241.038 58.7182 248.682 55.5732 251.652 43.1351C251.652 43.1351 253.852 40.421 253.764 39.7232L249.176 41.6751C249.176 41.6751 250.745 44.9712 249.499 47.7109C249.499 47.7109 249.35 41.7941 248.468 41.9228C248.291 41.9485 246.085 43.0643 246.085 43.0643C246.085 43.0643 248.782 48.8043 246.747 52.9782C246.747 52.9782 247.519 45.9037 245.242 43.4791L242.013 45.3571C242.013 45.3571 245.165 51.2868 243.027 56.1263C243.027 56.1263 243.576 48.7046 241.332 45.8137L238.406 48.0872C238.406 48.0872 241.367 53.93 239.562 57.9432C239.562 57.9432 239.327 49.3059 237.773 48.6531C237.773 48.6531 235.213 50.9041 234.822 51.8238C234.822 51.8238 236.85 56.0685 235.59 58.3066C235.59 58.3066 234.819 52.5505 234.186 52.5184C234.186 52.5184 231.635 56.3321 231.37 58.9497C231.37 58.9497 231.48 55.062 233.569 52.1582C233.569 52.1582 231.102 52.5795 229.662 54.1712C229.662 54.1712 230.059 51.4765 234.199 51.2385C234.199 51.2385 236.307 48.3444 236.869 48.1708C236.869 48.1708 232.755 47.8267 230.259 48.9297C230.259 48.9297 232.455 46.3861 237.625 47.5437L240.515 45.1931C240.515 45.1931 235.096 44.4567 232.797 45.2703C232.797 45.2703 235.442 43.0193 241.293 44.6593L244.438 42.7878C244.438 42.7878 239.817 41.7973 237.066 42.1446C237.066 42.1446 239.972 40.585 245.362 42.2765L247.622 41.27C247.622 41.27 244.238 40.6075 243.247 40.5014C242.255 40.3953 242.204 40.1252 242.204 40.1252C244.348 39.7692 246.549 40.013 248.562 40.8294C248.562 40.8294 253.335 39.0576 253.254 38.7585Z" fill="#2764C2"/>
<path d="M225.364 30.3206C225.364 30.3206 213.093 29.5842 214.526 38.1572C214.526 38.1572 214.239 39.6718 215.618 40.3599C215.618 40.3599 215.64 39.7168 216.88 39.9387C217.321 40.0125 217.769 40.0341 218.214 40.003C218.816 39.9633 219.389 39.7284 219.845 39.3341C219.845 39.3341 223.3 37.9128 224.643 32.2918C224.643 32.2918 225.635 31.0667 225.596 30.7515L223.523 31.6326C223.523 31.6326 224.23 33.1215 223.675 34.3595C223.675 34.3595 223.607 31.6873 223.21 31.7484C223.129 31.7484 222.131 32.2661 222.131 32.2661C222.131 32.2661 223.352 34.8612 222.431 36.7455C222.431 36.7455 222.78 33.5492 221.75 32.4526L220.29 33.3144C220.29 33.3144 221.715 35.9931 220.749 38.1797C220.749 38.1797 220.998 34.8258 219.984 33.5202L218.663 34.5492C218.663 34.5492 220 37.1893 219.186 39.0029C219.186 39.0029 219.076 35.0991 218.376 34.8033C218.376 34.8033 217.22 35.8194 217.042 36.2375C217.042 36.2375 217.959 38.1669 217.391 39.1669C217.391 39.1669 217.042 36.5655 216.745 36.5526C216.745 36.5526 215.592 38.2762 215.473 39.4467C215.53 38.3553 215.873 37.2979 216.467 36.3789C215.802 36.5044 215.188 36.8207 214.701 37.289C214.701 37.289 214.882 36.0702 216.751 35.9641C216.751 35.9641 217.72 34.6553 217.959 34.575C217.959 34.575 216.099 34.4206 214.972 34.919C214.972 34.919 215.963 33.771 218.298 34.292L219.59 33.2308C219.59 33.2308 217.139 32.9092 216.102 33.2662C216.102 33.2662 217.297 32.25 219.942 32.9896L221.363 32.1439C221.363 32.1439 219.273 31.6969 218.03 31.8577C218.03 31.8577 219.344 31.1535 221.779 31.9156L222.796 31.4622C222.796 31.4622 221.266 31.1631 220.817 31.1149C220.368 31.0667 220.345 30.9445 220.345 30.9445C221.315 30.7839 222.31 30.8952 223.219 31.266C223.219 31.266 225.402 30.4557 225.364 30.3206Z" fill="#2764C2"/>
<path opacity="0.1" d="M205.675 70.7319H138.847V211.977H205.675V70.7319Z" fill="black"/>
<path d="M203.628 251.407C203.628 251.407 202.052 247.754 201.348 246.069C200.951 245.104 200.279 244.944 199.766 244.966L199.795 244.645L199.921 243.124L199.947 242.802C201.164 242.548 202.207 242.349 202.207 242.349L201.448 203.336C201.448 203.336 201.125 202.925 200.344 200.442C199.956 199.204 198.083 197.683 196.333 196.471C196.059 196.281 195.791 196.101 195.526 195.927C196.163 195.396 196.833 194.904 197.531 194.455C198.526 193.879 198.855 190.596 198.855 190.596L198.69 190.917C198.855 190.596 198.69 182.213 198.69 182.213L198.109 173.511C198.109 173.511 197.696 163.166 194.467 160.455C191.237 157.745 187.159 156.796 187.159 156.796L184.899 156.217L180.733 155.153C180.617 154.963 180.504 154.764 180.41 154.555C180.368 154.474 180.329 154.391 180.29 154.307C181.563 153.41 182.601 152.222 183.318 150.843C184.034 149.463 184.408 147.933 184.408 146.38C184.408 145.859 184.366 145.338 184.282 144.824C184.282 144.728 184.246 144.628 184.227 144.531C184.569 144.298 184.893 144.039 185.196 143.756C185.689 143.365 186.092 142.873 186.378 142.313C186.422 142.203 186.459 142.09 186.487 141.975C186.487 141.943 186.487 141.911 186.507 141.875C186.526 141.84 186.536 141.705 186.545 141.618C186.545 141.586 186.545 141.554 186.545 141.521C186.545 141.428 186.545 141.332 186.545 141.239C186.545 141.216 186.545 141.193 186.545 141.168C186.545 141.062 186.529 140.956 186.513 140.846C186.515 140.84 186.515 140.833 186.513 140.827C186.454 140.454 186.357 140.087 186.223 139.734C185.9 138.904 185.48 138.126 185.328 137.241C185.141 136.196 185.357 135.055 184.857 134.116C184.649 133.761 184.365 133.456 184.025 133.223C183.685 132.99 183.297 132.835 182.89 132.768C182.07 132.643 181.232 132.738 180.462 133.045C180.085 133.223 179.679 133.332 179.264 133.367C178.961 133.349 178.665 133.277 178.388 133.154C177.43 132.78 176.519 132.293 175.676 131.704C175.069 131.227 174.421 130.805 173.738 130.444C173.396 130.265 173.018 130.165 172.631 130.149C172.245 130.134 171.86 130.204 171.504 130.353C170.309 130.958 170.083 132.643 168.972 133.386C168.207 133.9 167.209 133.849 166.285 133.881C165.362 133.913 164.316 134.142 163.86 134.939C163.537 135.492 163.615 136.151 163.676 136.798L163.696 137.016C163.696 137.094 163.696 137.174 163.715 137.251C163.766 138.078 163.642 138.906 163.35 139.682C162.905 140.859 162.058 142.02 162.088 143.219C162.09 143.41 162.115 143.6 162.162 143.785C162.187 143.878 162.217 143.969 162.252 144.059C162.43 144.456 162.629 144.844 162.85 145.22L162.879 145.271C162.901 145.316 162.924 145.361 162.943 145.406C162.963 145.451 163.001 145.528 163.024 145.589C163.047 145.65 163.05 145.65 163.059 145.679C163.069 145.708 163.101 145.798 163.118 145.859C163.171 146.041 163.194 146.23 163.185 146.419C163.148 146.663 163.127 146.909 163.124 147.155C163.125 147.279 163.169 147.398 163.247 147.494C163.326 147.589 163.435 147.655 163.557 147.679C163.69 147.676 163.82 147.636 163.931 147.564C164.221 147.399 164.497 147.211 164.755 147.001C164.755 147.104 164.755 147.207 164.774 147.323C164.999 149.624 166.04 151.771 167.71 153.378C167.71 153.477 167.71 153.58 167.687 153.699C167.664 153.818 167.671 153.931 167.664 154.05L164.048 155.182C164.048 155.182 164.067 155.246 164.106 155.355L163.725 155.506C161.849 156.262 159.759 157.201 158.59 158.053C158.074 158.426 157.602 158.732 157.179 158.986C155.643 159.922 154.466 161.342 153.834 163.021L153.785 163.144C153.462 163.88 151.88 168.89 151.88 168.89C151.88 168.89 150.721 171.681 150.553 173.488C150.553 173.488 148.648 179.479 149.145 183.422C149.145 183.422 147.653 189.088 148.234 189.988C148.234 189.988 147.64 192.425 150.249 194.879C150.059 194.995 149.852 195.12 149.636 195.258C147.614 196.525 144.698 198.58 144.201 200.166C143.429 202.632 143.097 203.06 143.097 203.06L142.315 242.011C142.315 242.011 143.358 242.21 144.576 242.461L144.601 242.783L144.727 244.301L144.756 244.622C144.243 244.6 143.571 244.776 143.174 245.728C142.467 247.41 140.914 251.06 140.914 251.06C140.914 251.06 137.436 254.276 139.545 257.26C139.637 257.396 139.746 257.521 139.867 257.633C141.382 259.003 144.611 258.125 146.907 257.231C148.074 256.735 149.08 255.927 149.813 254.896C149.906 254.775 150.023 254.675 150.156 254.602C150.289 254.528 150.437 254.483 150.588 254.468C151.115 254.384 151.611 254.168 152.032 253.841C152.285 253.657 152.489 253.415 152.628 253.135C152.766 252.855 152.834 252.546 152.826 252.234C152.825 252.218 152.825 252.201 152.826 252.185L152.623 247.609C152.623 247.609 152.374 244.413 151.583 244.619L151.38 244.667L151.325 244.346L151.218 243.725L151.163 243.403H151.602C151.602 243.403 151.712 239.789 153.039 236.946C154.367 234.104 155.238 211.141 155.238 211.141C155.238 211.141 171.665 211.408 172.214 209.874C172.537 209.874 172.889 209.874 173.225 209.851C173.777 211.385 189.281 211.459 189.281 211.459C189.281 211.459 190.162 234.448 191.486 237.294C191.765 237.903 191.998 238.533 192.18 239.178C192.597 240.669 192.847 242.202 192.926 243.747H193.365L193.307 244.069L193.201 244.686L193.146 245.008L192.936 244.96C192.151 244.757 191.903 247.954 191.903 247.954L191.693 252.558C191.676 252.869 191.738 253.179 191.872 253.459C192.007 253.74 192.209 253.983 192.461 254.166C192.889 254.5 193.394 254.722 193.931 254.809C194.083 254.822 194.23 254.866 194.364 254.939C194.497 255.012 194.614 255.113 194.706 255.234C195.44 256.264 196.446 257.072 197.612 257.568C200.092 258.533 203.657 259.475 204.981 257.601C207.106 254.61 203.628 251.407 203.628 251.407ZM161.874 194.059H161.913H161.874ZM187.821 180.913C187.821 180.913 188.238 182.473 188.98 183.293C189.723 184.113 189.355 189.207 189.355 189.207C189.063 189.225 188.773 189.271 188.489 189.345C187.918 185.959 187.391 182.2 187.821 180.913Z" fill="url(#paint0_linear)"/>
<path d="M152.103 245.101L145.609 245.744L145.428 243.58L145.302 242.091L145.125 239.914L151.26 240.236L151.748 243.03L151.851 243.638H151.854L152.103 245.101Z" fill="#8E6F7F"/>
<path d="M199.394 240.239L199.217 242.413L199.094 243.902L198.91 246.066L192.413 245.423L192.671 243.96L192.771 243.355L193.259 240.561L199.394 240.239Z" fill="#8E6F7F"/>
<path d="M192.513 208.922L173.202 209.825C172.324 209.868 171.446 209.868 170.567 209.825L152.119 208.925V194.371H192.513V208.922Z" fill="#5F5570"/>
<path opacity="0.1" d="M192.513 208.922L173.202 209.825C172.324 209.868 171.446 209.868 170.567 209.825L152.119 208.925V194.371H192.513V208.922Z" fill="black"/>
<path d="M167.784 155.159C167.784 155.159 161.351 157.31 158.929 159.079C158.426 159.446 157.961 159.748 157.554 159.996C156.058 160.914 154.913 162.304 154.302 163.944C154.286 163.989 154.27 164.028 154.253 164.063C153.931 164.787 152.397 169.691 152.397 169.691C152.397 169.691 151.266 172.424 151.105 174.193C150.944 175.961 160.308 180.704 160.308 180.704C160.308 180.704 155.787 190.512 157.806 193.004C159.824 195.496 189.29 196.702 188.644 193.004C187.999 189.306 186.868 183.197 187.433 181.508L197.444 174.273C197.444 174.273 197.04 164.144 193.892 161.491C190.743 158.838 186.788 157.873 186.788 157.873L180.52 156.265C180.52 156.265 178.311 161.732 175.889 162.455C173.467 163.179 168.162 159.838 167.784 155.159Z" fill="#EAEAF2"/>
<path opacity="0.1" d="M176.819 164.366C176.819 164.366 174.087 166.636 172.653 164.366C172.653 164.366 171.362 168.205 172.653 169.491L172.605 169.752L172.376 170.897L169.385 195.657L171.846 199.886L176.325 194.291L175.963 171.138L175.802 169.81L175.763 169.488H176.528C176.528 169.488 178.56 165.993 176.819 164.366Z" fill="black"/>
<path opacity="0.1" d="M177.465 164.366C177.465 164.366 174.733 166.636 173.299 164.366C173.299 164.366 172.008 168.205 173.299 169.491L173.251 169.752L173.022 170.897L170.031 195.657L172.492 199.886L176.971 194.291L176.609 171.138L176.448 169.81L176.409 169.488H177.174C177.174 169.488 179.205 165.993 177.465 164.366Z" fill="black"/>
<path d="M176.648 193.972L172.169 199.558L169.702 195.352L172.695 170.578L172.925 169.433L172.976 169.17L173.38 168.128L176.086 169.17L176.125 169.491L176.286 170.819L176.648 193.972Z" fill="#BC8487"/>
<path opacity="0.1" d="M151.748 243.027C150.354 243.018 148.965 242.877 147.598 242.606C146.923 242.439 146.077 242.252 145.305 242.088L145.125 239.911L151.26 240.233L151.748 243.027Z" fill="black"/>
<path d="M172.217 209.854C171.681 211.356 155.671 211.092 155.671 211.092C155.671 211.092 154.812 233.602 153.52 236.39C152.229 239.178 152.119 242.712 152.119 242.712C152.119 242.712 149.322 242.712 147.598 242.284C145.874 241.857 143.077 241.32 143.077 241.32L143.833 203.134C143.833 203.134 144.156 202.732 144.908 200.317C145.393 198.764 148.234 196.751 150.201 195.493C151.299 194.805 152.119 194.355 152.119 194.355L161.671 194.741L167.567 194.979C167.567 194.979 172.757 208.353 172.217 209.854Z" fill="#5F5570"/>
<path opacity="0.1" d="M152.106 245.098L145.609 245.741L145.425 243.577C145.668 243.584 145.908 243.636 146.132 243.731C147.317 244.58 150.705 243.905 151.851 243.635L152.106 245.098Z" fill="black"/>
<path d="M153.333 251.352C153.341 251.658 153.274 251.96 153.138 252.234C153.003 252.508 152.803 252.745 152.555 252.925C152.146 253.244 151.663 253.456 151.15 253.539C151.002 253.552 150.859 253.596 150.729 253.668C150.599 253.74 150.486 253.838 150.398 253.957C149.68 254.965 148.697 255.756 147.556 256.244C145.318 257.118 142.17 257.977 140.694 256.636C140.572 256.528 140.464 256.406 140.371 256.272C138.314 253.34 141.705 250.201 141.705 250.201C141.705 250.201 143.235 246.625 143.923 244.979C143.998 244.765 144.116 244.57 144.272 244.405C144.427 244.24 144.615 244.11 144.825 244.022C145.034 243.935 145.26 243.893 145.487 243.898C145.713 243.903 145.937 243.956 146.142 244.053C147.433 244.979 151.35 244.092 152.116 243.895C152.881 243.699 153.126 246.825 153.126 246.825L153.333 251.304C153.332 251.32 153.332 251.336 153.333 251.352Z" fill="#BC8487"/>
<path opacity="0.1" d="M199.398 240.236L199.217 242.41C198.445 242.574 197.602 242.76 196.921 242.927C195.555 243.199 194.167 243.341 192.775 243.352L193.262 240.558L199.398 240.236Z" fill="black"/>
<path d="M201.448 241.641C201.448 241.641 198.652 242.178 196.927 242.606C195.203 243.034 192.406 243.034 192.406 243.034C192.406 243.034 192.3 239.496 191.008 236.712C189.716 233.927 188.854 211.414 188.854 211.414C188.854 211.414 173.748 211.327 173.209 209.825C172.67 208.324 179.793 195.355 179.793 195.355L184.136 195.13L192.406 194.693C192.406 194.693 194.021 195.567 195.713 196.747C197.405 197.927 199.243 199.426 199.62 200.638C200.373 203.053 200.696 203.455 200.696 203.455L201.448 241.641Z" fill="#5F5570"/>
<path opacity="0.1" d="M199.094 243.899L198.913 246.063L192.413 245.42L192.671 243.956C193.818 244.23 197.192 244.902 198.387 244.053C198.611 243.958 198.851 243.905 199.094 243.899Z" fill="black"/>
<path d="M198.387 244.375C198.592 244.277 198.816 244.224 199.043 244.218C199.27 244.213 199.496 244.255 199.706 244.342C199.916 244.43 200.104 244.56 200.26 244.726C200.416 244.891 200.534 245.087 200.609 245.301C201.293 246.947 202.827 250.526 202.827 250.526C202.827 250.526 206.218 253.661 204.161 256.594C202.869 258.433 199.394 257.511 196.979 256.565C195.837 256.08 194.853 255.288 194.137 254.279C194.048 254.16 193.935 254.061 193.805 253.989C193.674 253.917 193.53 253.873 193.382 253.861C192.857 253.77 192.364 253.549 191.948 253.218C191.703 253.037 191.507 252.8 191.377 252.526C191.247 252.252 191.187 251.951 191.202 251.648L191.405 247.146C191.405 247.146 191.648 244.018 192.413 244.214C193.178 244.41 197.095 245.301 198.387 244.375Z" fill="#BC8487"/>
<path d="M181.695 157.873L175.175 164.755L174.995 164.948L174.759 164.809C173.396 164.005 166.579 159.909 167.164 158.677C167.487 157.976 167.677 156.516 167.777 155.259C167.777 155.108 167.797 154.96 167.81 154.815C167.874 153.821 167.89 153.05 167.89 153.05C167.89 153.05 180.161 150.959 179.677 153.05C179.48 153.895 179.774 154.847 180.19 155.68C180.313 155.921 180.449 156.15 180.581 156.365C180.907 156.899 181.28 157.404 181.695 157.873Z" fill="#FFC4D0"/>
<path opacity="0.1" d="M180.19 155.68C178.36 157.024 176.109 157.674 173.84 157.516C171.572 157.357 169.434 156.4 167.81 154.815C167.874 153.821 167.89 153.05 167.89 153.05C167.89 153.05 180.161 150.959 179.677 153.05C179.49 153.902 179.774 154.847 180.19 155.68Z" fill="black"/>
<path d="M184.088 147.676C184.123 150.151 183.191 152.543 181.489 154.347C179.786 156.151 177.447 157.225 174.964 157.342C172.481 157.46 170.049 156.612 168.182 154.978C166.315 153.343 165.159 151.05 164.958 148.583C164.932 148.283 164.92 147.981 164.92 147.676C164.896 146.409 165.127 145.149 165.598 143.972C166.068 142.794 166.77 141.721 167.662 140.817C168.554 139.912 169.618 139.194 170.792 138.703C171.966 138.213 173.226 137.96 174.499 137.96C175.772 137.96 177.032 138.213 178.206 138.703C179.38 139.194 180.444 139.912 181.336 140.817C182.227 141.721 182.929 142.794 183.4 143.972C183.871 145.149 184.102 146.409 184.078 147.676H184.088Z" fill="#FFC4D0"/>
<path opacity="0.1" d="M183.968 146.152C183.719 146.354 183.43 146.502 183.119 146.586C182.809 146.669 182.484 146.687 182.167 146.638C180.688 146.316 180.181 144.065 178.669 143.911C177.158 143.756 176.154 145.84 174.623 145.798C173.977 145.782 173.396 145.361 172.802 145.068C171.762 144.557 170.051 144.245 168.927 144.631C167.238 145.207 166.666 146.763 165.588 148.001C165.404 148.212 165.202 148.407 164.984 148.583C164.958 148.283 164.945 147.981 164.945 147.676C164.923 145.263 165.82 142.932 167.456 141.151C169.091 139.37 171.343 138.273 173.759 138.08C176.174 137.886 178.573 138.612 180.473 140.11C182.373 141.607 183.632 143.767 183.998 146.152H183.968Z" fill="black"/>
<path d="M172.802 144.75C173.396 145.039 173.964 145.464 174.623 145.48C176.151 145.519 177.148 143.425 178.666 143.589C180.184 143.753 180.684 145.985 182.17 146.316C183.168 146.541 184.107 145.798 184.853 145.107C185.335 144.725 185.729 144.243 186.006 143.695C186.329 142.898 186.161 141.978 185.861 141.168C185.561 140.357 185.137 139.579 184.989 138.727C184.808 137.705 185.018 136.585 184.53 135.666C184.329 135.318 184.052 135.02 183.72 134.792C183.388 134.564 183.01 134.412 182.612 134.347C181.813 134.224 180.996 134.316 180.245 134.614C179.88 134.791 179.484 134.9 179.08 134.936C178.784 134.918 178.494 134.847 178.224 134.727C177.29 134.36 176.403 133.884 175.582 133.309C174.994 132.841 174.364 132.428 173.7 132.074C173.366 131.899 172.998 131.801 172.621 131.786C172.245 131.771 171.87 131.84 171.523 131.987C170.361 132.579 170.138 134.238 169.056 134.955C168.31 135.457 167.338 135.405 166.44 135.441C165.543 135.476 164.503 135.692 164.077 136.473C163.696 137.145 163.886 137.971 163.935 138.74C163.983 139.549 163.861 140.36 163.576 141.12C163.076 142.451 162.058 143.763 162.42 145.139C162.656 146.043 163.47 146.792 163.421 147.712C163.383 147.949 163.363 148.189 163.36 148.429C163.361 148.55 163.403 148.667 163.48 148.76C163.557 148.854 163.664 148.918 163.783 148.943C163.912 148.942 164.038 148.901 164.145 148.828C164.681 148.528 165.163 148.14 165.569 147.68C166.66 146.438 167.225 144.885 168.914 144.309C170.054 143.933 171.762 144.236 172.802 144.75Z" fill="#8E6F7F"/>
<path d="M183.914 200.883L182.17 201.355L178.143 202.458C177.211 203.15 176.162 203.669 175.046 203.992C172.582 204.613 170.99 203.262 169.666 201.172C169.134 200.336 169.402 199.667 170.099 199.143C171.778 197.879 175.931 197.468 177.203 197.635C178.039 197.703 178.879 197.573 179.654 197.255C180.205 197.056 180.736 196.806 181.24 196.509L183.914 200.883Z" fill="#FFC4D0"/>
<path opacity="0.1" d="M183.914 200.883L182.17 201.355C181.669 199.854 180.846 197.969 179.667 197.246C180.218 197.046 180.749 196.797 181.253 196.5L183.914 200.883Z" fill="black"/>
<path opacity="0.1" d="M195.707 196.747C194.983 197.329 194.37 197.86 194.37 197.86C194.37 197.86 185.974 200.481 184.359 203.777C184.359 203.777 183.068 197.345 180.323 197.265C180.323 197.265 183.277 196.111 184.13 195.123L192.406 194.693C192.406 194.693 194.021 195.567 195.707 196.747Z" fill="black"/>
<path d="M195.581 171.54L197.437 174.273L198.003 182.795C198.003 182.795 198.164 190.994 198.003 191.316L198.164 190.994C198.164 190.994 197.841 194.21 196.872 194.773C195.904 195.336 193.724 197.217 193.724 197.217C193.724 197.217 185.328 199.838 183.713 203.134C183.713 203.134 182.422 196.702 179.677 196.622C179.677 196.622 183.794 195.014 183.713 193.969C183.713 193.969 186.862 191.155 187.104 190.432C187.346 189.708 188.919 189.628 188.919 189.628C188.919 189.628 189.284 184.644 188.557 183.84C187.831 183.036 187.427 181.508 187.427 181.508L195.581 171.54Z" fill="#EAEAF2"/>
<path opacity="0.1" d="M175.046 203.983C172.582 204.603 170.99 203.253 169.666 201.162C169.134 200.326 169.402 199.657 170.099 199.133L170.351 199.233C170.351 199.233 174.791 201.15 175.046 203.983Z" fill="black"/>
<path d="M174.026 206.552C171.12 210.571 165.711 204.983 165.307 203.857C165.162 203.449 164.61 203.085 163.973 202.793C163.166 202.442 162.329 202.165 161.471 201.966L166.276 198.069L167.196 198.436L170.028 199.564C170.028 199.564 176.932 202.532 174.026 206.552Z" fill="#FFC4D0"/>
<path opacity="0.1" d="M167.196 198.436C164.548 199.69 163.983 201.494 163.967 202.793C163.16 202.442 162.322 202.165 161.464 201.966L166.269 198.069L167.196 198.436Z" fill="black"/>
<path opacity="0.1" d="M162.966 205.385C162.966 205.385 155.216 199.275 151.502 196.622C151.038 196.292 150.605 195.92 150.211 195.509C151.308 194.821 152.129 194.371 152.129 194.371L161.681 194.757C161.936 195.197 162.087 195.496 162.087 195.496L167.254 198.873C161.028 200.883 162.966 205.385 162.966 205.385Z" fill="black"/>
<path d="M152.632 173.308L151.099 174.193C151.099 174.193 149.242 180.061 149.726 183.92C149.726 183.92 148.273 189.467 148.838 190.351C148.838 190.351 148.112 193.326 151.825 195.979C155.539 198.632 163.289 204.741 163.289 204.741C163.289 204.741 161.351 200.24 167.567 198.23L162.401 194.853C162.401 194.853 160.667 191.425 159.01 190.673C159.01 190.673 157.718 189.387 158.526 188.502C159.333 187.618 159.979 186.653 159.979 185.769C159.979 184.885 160.302 180.704 160.302 180.704L161.271 176.202L152.632 173.308Z" fill="#EAEAF2"/>
<path opacity="0.1" d="M176.125 169.488H172.976C172.957 169.47 172.94 169.451 172.925 169.43L172.976 169.167L173.38 168.125L176.086 169.167L176.125 169.488Z" fill="black"/>
<path d="M177.142 164.044C177.142 164.044 174.41 166.314 172.976 164.044C172.976 164.044 171.685 167.884 172.976 169.17H176.851C176.851 169.17 178.883 165.671 177.142 164.044Z" fill="#BC8487"/>
<path opacity="0.1" d="M180.836 156.587L184.905 157.632C184.905 157.632 181.049 167.601 180.2 167.601L175.318 165.269L180.836 156.587Z" fill="black"/>
<path opacity="0.1" d="M181.695 157.873L175.175 164.755L174.995 164.948L174.759 164.809L180.458 156.153L180.597 156.381C180.919 156.909 181.286 157.409 181.695 157.873Z" fill="black"/>
<path d="M180.513 156.265L184.582 157.31C184.582 157.31 180.726 167.279 179.877 167.279L174.995 164.948L180.513 156.265Z" fill="#EAEAF2"/>
<path opacity="0.1" d="M167.461 155.481L163.935 156.587C163.935 156.587 167.406 167.038 168.375 167.601L174.672 165.269L167.461 155.481Z" fill="black"/>
<path opacity="0.1" d="M175.175 164.755L174.995 164.948C174.995 164.948 166.518 160.044 167.164 158.677C167.487 157.976 167.677 156.516 167.777 155.259V155.063L175.175 164.755Z" fill="black"/>
<path d="M167.784 155.159L164.258 156.265C164.258 156.265 167.729 166.716 168.698 167.279L174.995 164.948L167.784 155.159Z" fill="#EAEAF2"/>
<path opacity="0.1" d="M159.385 172.231C159.385 172.231 161.509 172.607 161.471 174.804C161.432 177 162.346 171.964 162.346 171.964L159.385 172.231Z" fill="black"/>
<path opacity="0.1" d="M159.869 178.984C159.869 178.984 159.278 182.306 159.869 185.309C160.46 188.313 160.408 189.329 160.867 189.49C161.325 189.65 159.869 178.984 159.869 178.984Z" fill="black"/>
<path opacity="0.1" d="M186.994 178.662C186.825 178.684 186.662 178.742 186.517 178.833C186.373 178.924 186.25 179.045 186.158 179.188C186.066 179.331 186.006 179.493 185.983 179.661C185.96 179.83 185.975 180.002 186.026 180.164C186.297 181.508 186.994 178.662 186.994 178.662Z" fill="black"/>
<path opacity="0.1" d="M150.075 189.917C150.075 189.917 156.995 189.329 158.148 190.56C159.301 191.792 150.075 189.917 150.075 189.917Z" fill="black"/>
<path opacity="0.1" d="M190.224 190.384C190.224 190.384 195.284 189.763 196.469 190.622L190.224 190.384Z" fill="black"/>
<path opacity="0.1" d="M192.271 191.204C192.271 191.204 195.284 191.31 195.984 191.686L192.271 191.204Z" fill="black"/>
<path opacity="0.1" d="M192.862 192.281C192.862 192.281 195.607 192.175 195.984 192.602L192.862 192.281Z" fill="black"/>
<path opacity="0.1" d="M154.153 207.394C154.153 207.394 156.504 208.613 156.265 209.858C156.026 211.102 154.153 207.394 154.153 207.394Z" fill="black"/>
<path opacity="0.1" d="M152.119 207.986C152.119 207.986 155.707 212.62 155.219 214.147C154.731 215.675 152.119 207.986 152.119 207.986Z" fill="black"/>
<path opacity="0.1" d="M190.575 208.755C190.575 208.755 188.799 210.211 188.848 211.414L190.575 208.755Z" fill="black"/>
<path opacity="0.1" d="M149.565 237.461C149.565 237.461 149.565 238.827 152.106 240.837L149.565 237.461Z" fill="black"/>
<path opacity="0.1" d="M194.421 234.245C194.421 234.245 194.15 237.088 191.677 238.561L194.421 234.245Z" fill="black"/>
<g opacity="0.1">
<path opacity="0.1" d="M163.935 137.762C163.935 137.541 163.896 137.312 163.877 137.087C163.835 137.578 163.851 138.072 163.922 138.56C163.944 138.295 163.948 138.028 163.935 137.762Z" fill="black"/>
<path opacity="0.1" d="M163.421 146.747C163.47 145.814 162.656 145.065 162.42 144.174C162.408 144.131 162.399 144.087 162.394 144.043C162.321 144.405 162.329 144.78 162.42 145.139C162.611 145.876 163.185 146.506 163.366 147.22C163.382 147.052 163.415 146.901 163.421 146.747Z" fill="black"/>
<path opacity="0.1" d="M186.006 142.731C185.728 143.278 185.335 143.759 184.853 144.142C184.101 144.834 183.168 145.576 182.17 145.351C180.688 145.03 180.177 142.779 178.666 142.624C177.155 142.47 176.151 144.554 174.623 144.512C173.977 144.496 173.396 144.075 172.802 143.782C171.762 143.271 170.054 142.959 168.927 143.345C167.238 143.92 166.667 145.477 165.581 146.715C165.177 147.176 164.696 147.565 164.161 147.866C164.052 147.937 163.926 147.976 163.796 147.979C163.715 147.968 163.638 147.935 163.574 147.884C163.511 147.833 163.462 147.766 163.434 147.689V147.712C163.396 147.95 163.376 148.191 163.373 148.432C163.375 148.552 163.417 148.669 163.494 148.761C163.571 148.854 163.677 148.918 163.796 148.943C163.926 148.941 164.052 148.902 164.161 148.831C164.696 148.53 165.177 148.14 165.581 147.68C166.673 146.441 167.238 144.885 168.927 144.31C170.067 143.924 171.775 144.236 172.802 144.747C173.396 145.039 173.964 145.461 174.623 145.477C176.151 145.515 177.148 143.422 178.666 143.589C180.184 143.756 180.688 145.982 182.17 146.316C183.168 146.541 184.107 145.798 184.853 145.107C185.335 144.724 185.728 144.243 186.006 143.695C186.186 143.231 186.234 142.725 186.145 142.235C186.118 142.405 186.071 142.571 186.006 142.731Z" fill="black"/>
</g>
<path opacity="0.1" d="M141.708 250.205C141.708 250.205 144.346 249.394 145.441 250.931L141.708 250.205Z" fill="black"/>
<path opacity="0.1" d="M202.827 250.526C202.827 250.526 198.458 250.272 198.629 251.449L202.827 250.526Z" fill="black"/>
<path opacity="0.1" d="M290.057 248.143C294.86 248.143 298.753 247.488 298.753 246.68C298.753 245.872 294.86 245.217 290.057 245.217C285.254 245.217 281.361 245.872 281.361 246.68C281.361 247.488 285.254 248.143 290.057 248.143Z" fill="#2764C2"/>
<path opacity="0.1" d="M40.4147 260.151C45.2175 260.151 49.1109 259.495 49.1109 258.687C49.1109 257.879 45.2175 257.224 40.4147 257.224C35.6119 257.224 31.7185 257.879 31.7185 258.687C31.7185 259.495 35.6119 260.151 40.4147 260.151Z" fill="#00BFA6"/>
<path opacity="0.1" d="M74.0532 268C78.856 268 82.7494 267.345 82.7494 266.537C82.7494 265.729 78.856 265.074 74.0532 265.074C69.2504 265.074 65.357 265.729 65.357 266.537C65.357 267.345 69.2504 268 74.0532 268Z" fill="#00BFA6"/>
<path d="M271.021 264.546C278.192 264.546 284.006 263.567 284.006 262.36C284.006 261.152 278.192 260.173 271.021 260.173C263.85 260.173 258.037 261.152 258.037 262.36C258.037 263.567 263.85 264.546 271.021 264.546Z" fill="#2764C2"/>
<path d="M276.391 258.784C276.983 258.302 277.414 257.653 277.628 256.922C277.789 256.186 277.473 255.314 276.763 255.028C275.968 254.726 275.119 255.276 274.476 255.829C273.834 256.382 273.094 257.015 272.251 256.896C272.685 256.506 273.01 256.01 273.194 255.457C273.378 254.904 273.415 254.313 273.301 253.742C273.263 253.505 273.162 253.283 273.007 253.099C272.568 252.629 271.767 252.828 271.241 253.202C269.562 254.375 269.093 256.649 269.084 258.691C268.912 257.954 269.058 257.186 269.051 256.44C269.045 255.694 268.841 254.832 268.199 254.436C267.802 254.224 267.357 254.12 266.907 254.134C266.151 254.105 265.312 254.182 264.795 254.732C264.149 255.414 264.324 256.559 264.879 257.305C265.435 258.051 266.284 258.53 267.065 259.048C267.69 259.419 268.224 259.925 268.625 260.53C268.673 260.614 268.712 260.704 268.741 260.797H273.459C274.523 260.26 275.509 259.583 276.391 258.784Z" fill="#2764C2"/>
<path d="M74.5021 230.579C74.5021 230.579 76.2781 232.891 73.6851 236.368C71.092 239.844 68.9543 242.799 69.8101 244.976C69.8101 244.976 73.7238 238.496 76.9143 238.406C80.1047 238.316 78.0057 234.477 74.5021 230.579Z" fill="#A0C6FF"/>
<path opacity="0.1" d="M74.5021 230.579C74.657 230.803 74.7788 231.048 74.8638 231.306C77.9703 234.94 79.6268 238.332 76.6398 238.416C73.8595 238.496 70.5237 243.448 69.7229 244.699C69.7487 244.796 69.781 244.889 69.8165 244.985C69.8165 244.985 73.7303 238.506 76.9208 238.416C80.1112 238.326 78.0058 234.477 74.5021 230.579Z" fill="black"/>
<path d="M77.7991 233.525C77.7991 234.338 77.7087 234.998 77.5956 234.998C77.4826 234.998 77.3922 234.338 77.3922 233.525C77.3922 232.711 77.5052 233.094 77.6183 233.094C77.7313 233.094 77.7991 232.711 77.7991 233.525Z" fill="#FFD037"/>
<path d="M78.9325 234.496C78.2157 234.885 77.5892 235.12 77.5375 235.02C77.4859 234.92 78.0187 234.525 78.7355 234.136C79.4524 233.747 79.1715 234.03 79.2232 234.136C79.2748 234.242 79.6494 234.107 78.9325 234.496Z" fill="#FFD037"/>
<path d="M65.1342 230.579C65.1342 230.579 63.3581 232.891 65.9512 236.368C68.5442 239.844 70.6819 242.799 69.8262 244.976C69.8262 244.976 65.9157 238.496 62.722 238.406C59.5283 238.316 61.6241 234.477 65.1342 230.579Z" fill="#A0C6FF"/>
<path opacity="0.1" d="M65.1342 230.579C64.9788 230.803 64.856 231.048 64.7693 231.306C61.6628 234.94 60.0095 238.332 62.9932 238.416C65.7768 238.496 69.1126 243.448 69.9134 244.699C69.8869 244.797 69.8546 244.892 69.8165 244.985C69.8165 244.985 65.906 238.506 62.7123 238.416C59.5186 238.326 61.6241 234.477 65.1342 230.579Z" fill="#B11D1D"/>
<path d="M61.834 233.525C61.834 234.338 61.9276 234.998 62.0407 234.998C62.1537 234.998 62.2441 234.338 62.2441 233.525C62.2441 232.711 62.1311 233.094 62.0181 233.094C61.905 233.094 61.834 232.711 61.834 233.525Z" fill="#FFD037"/>
<path d="M60.7037 234.496C61.4206 234.885 62.0438 235.12 62.0987 235.02C62.1536 234.92 61.6143 234.525 60.8975 234.136C60.1806 233.747 60.4648 234.03 60.4099 234.136C60.355 234.242 59.9868 234.107 60.7037 234.496Z" fill="#FFD037"/>
<path d="M62.3991 244.683C62.3991 244.683 67.3591 244.529 68.8575 243.471C70.3558 242.413 76.4881 241.143 76.8562 242.844C77.2243 244.545 84.3124 251.298 78.713 251.343C73.1135 251.388 65.6993 250.475 64.2074 249.571C62.7155 248.667 62.3991 244.683 62.3991 244.683Z" fill="#A8A8A8"/>
<path opacity="0.2" d="M78.8098 250.751C73.2104 250.796 65.7962 249.883 64.3043 248.979C63.1709 248.288 62.7155 245.815 62.5638 244.677H62.3991C62.3991 244.677 62.722 248.658 64.2042 249.565C65.6864 250.471 73.1103 251.381 78.7097 251.336C80.3243 251.336 80.883 250.751 80.8539 249.902C80.6279 250.423 80.0111 250.742 78.8098 250.751Z" fill="black"/>
<defs>
<linearGradient id="paint0_linear" x1="138.847" y1="194.406" x2="205.675" y2="194.406" gradientUnits="userSpaceOnUse">
<stop stop-color="#808080" stop-opacity="0.25"/>
<stop offset="0.54" stop-color="#808080" stop-opacity="0.12"/>
<stop offset="1" stop-color="#808080" stop-opacity="0.1"/>
</linearGradient>
</defs>
</svg>
